<svg width="31" height="30" viewBox="0 0 31 30" fill="none" xmlns="http://www.w3.org/2000/svg">
<g clip-path="url(#clip0_222_603)">
<path d="M15.6666 4.99996C17.7121 2.85711 19.403 2.14282 21.803 2.14282C23.7921 2.14282 25.6998 2.97063 27.1063 4.44413C28.5128 5.91763 29.303 7.91612 29.303 9.99996C29.303 13.2714 27.2439 15.7714 25.2121 17.8571L15.6666 27.8571L6.12118 17.8571C4.07573 15.7857 2.03027 13.2857 2.03027 9.99996C2.03027 7.91612 2.82045 5.91763 4.22697 4.44413C5.6335 2.97063 7.54115 2.14282 9.53027 2.14282C11.9303 2.14282 13.6212 2.85711 15.6666 4.99996ZM15.6666 4.99996L11.6303 9.22854C11.3532 9.51669 11.1333 9.85943 10.9833 10.237C10.8332 10.6146 10.7559 11.0195 10.7559 11.4285C10.7559 11.8375 10.8332 12.2425 10.9833 12.6201C11.1333 12.9976 11.3532 13.3404 11.6303 13.6285C12.7485 14.8 14.5348 14.8428 15.7212 13.7285L18.5439 11.0143C19.2514 10.3417 20.1726 9.96909 21.128 9.96909C22.0834 9.96909 23.0046 10.3417 23.7121 11.0143L27.7485 14.8142M23.8485 19.2857L21.1212 16.4285M19.7575 23.5714L17.0303 20.7142" stroke="#0097FD" stroke-width="2" stroke-linecap="round" stroke-linejoin="round"/>
</g>
<defs>
<clipPath id="clip0_222_603">
<rect width="30" height="30" fill="white" transform="translate(0.666626)"/>
</clipPath>
</defs>
</svg>
