<svg width="31" height="34" viewBox="0 0 31 34" fill="none" xmlns="http://www.w3.org/2000/svg">
<path d="M20 31.25V19.25C20 18.8521 19.842 18.4706 19.5607 18.1893C19.2794 17.908 18.8978 17.75 18.5 17.75H12.5C12.1022 17.75 11.7206 17.908 11.4393 18.1893C11.158 18.4706 11 18.8521 11 19.25V31.25M2 14.75C1.9999 14.3136 2.095 13.8824 2.27868 13.4865C2.46236 13.0907 2.7302 12.7396 3.0635 12.458L13.5635 3.45945C14.105 3.00182 14.791 2.75073 15.5 2.75073C16.209 2.75073 16.895 3.00182 17.4365 3.45945L27.9365 12.458C28.2698 12.7396 28.5376 13.0907 28.7213 13.4865C28.905 13.8824 29.0001 14.3136 29 14.75V28.25C29 29.0456 28.6839 29.8087 28.1213 30.3713C27.5587 30.9339 26.7956 31.25 26 31.25H5C4.20435 31.25 3.44129 30.9339 2.87868 30.3713C2.31607 29.8087 2 29.0456 2 28.25V14.75Z" stroke="#0097FD" stroke-width="2" stroke-linecap="round" stroke-linejoin="round"/>
</svg>
