<svg width="100" height="100" viewBox="0 0 100 100" fill="none" xmlns="http://www.w3.org/2000/svg">
<rect width="100" height="100" rx="13" fill="#D9D9D9"/>
<path d="M25 95V85C25 82.3478 26.0536 79.8043 27.9289 77.9289C29.8043 76.0536 32.3478 75 35 75H65C67.6522 75 70.1957 76.0536 72.0711 77.9289C73.9464 79.8043 75 82.3478 75 85V95M15 5H85C90.5229 5 95 9.47715 95 15V85C95 90.5229 90.5229 95 85 95H15C9.47715 95 5 90.5229 5 85V15C5 9.47715 9.47715 5 15 5ZM65 40C65 48.2843 58.2843 55 50 55C41.7157 55 35 48.2843 35 40C35 31.7157 41.7157 25 50 25C58.2843 25 65 31.7157 65 40Z" stroke="#070B0E" stroke-width="4" stroke-linecap="round" stroke-linejoin="round"/>
</svg>
