<svg width="30" height="32" viewBox="0 0 30 32" fill="none" xmlns="http://www.w3.org/2000/svg">
<path d="M7.5 29.5V26.5C7.5 25.7044 7.81607 24.9413 8.37868 24.3787C8.94129 23.8161 9.70435 23.5 10.5 23.5H19.5C20.2956 23.5 21.0587 23.8161 21.6213 24.3787C22.1839 24.9413 22.5 25.7044 22.5 26.5V29.5M4.5 2.5H25.5C27.1569 2.5 28.5 3.84315 28.5 5.5V26.5C28.5 28.1569 27.1569 29.5 25.5 29.5H4.5C2.84315 29.5 1.5 28.1569 1.5 26.5V5.5C1.5 3.84315 2.84315 2.5 4.5 2.5ZM19.5 13C19.5 15.4853 17.4853 17.5 15 17.5C12.5147 17.5 10.5 15.4853 10.5 13C10.5 10.5147 12.5147 8.5 15 8.5C17.4853 8.5 19.5 10.5147 19.5 13Z" stroke="#0097FD" stroke-width="2" stroke-linecap="round" stroke-linejoin="round"/>
</svg>
