<svg width="39" height="37" viewBox="0 0 39 37" fill="none" xmlns="http://www.w3.org/2000/svg">
<g clip-path="url(#clip0_55_445)">
<path d="M18.5446 2.29572C18.6227 2.13876 18.7434 2.00664 18.893 1.91427C19.0426 1.8219 19.2152 1.77295 19.3913 1.77295C19.5674 1.77295 19.74 1.8219 19.8896 1.91427C20.0392 2.00664 20.1599 2.13876 20.238 2.29572L24.3559 10.5903C24.6271 11.1362 25.0276 11.6086 25.5228 11.9667C26.018 12.3249 26.5933 12.5582 27.1991 12.6467L36.4081 13.9869C36.5826 14.012 36.7465 14.0852 36.8814 14.1982C37.0162 14.3111 37.1166 14.4594 37.1711 14.6261C37.2256 14.7928 37.2321 14.9714 37.1899 15.1417C37.1477 15.3119 37.0584 15.467 36.9322 15.5894L30.2724 22.0386C29.8331 22.4642 29.5045 22.9896 29.3148 23.5696C29.1251 24.1495 29.0799 24.7666 29.1832 25.3678L30.7554 34.4796C30.7862 34.653 30.7674 34.8316 30.7011 34.9949C30.6347 35.1582 30.5236 35.2997 30.3803 35.4032C30.237 35.5067 30.0673 35.568 29.8906 35.5803C29.714 35.5925 29.5374 35.5551 29.381 35.4723L21.149 31.1681C20.6065 30.8849 20.0031 30.7369 19.3904 30.7369C18.7778 30.7369 18.1743 30.8849 17.6319 31.1681L9.40157 35.4723C9.24529 35.5546 9.06893 35.5916 8.89255 35.5791C8.71616 35.5667 8.54684 35.5052 8.40383 35.4018C8.26083 35.2984 8.14988 35.1571 8.08361 34.9941C8.01734 34.831 7.9984 34.6528 8.02896 34.4796L9.59944 25.3695C9.70318 24.7681 9.65823 24.1506 9.46848 23.5703C9.27873 22.99 8.94987 22.4643 8.51026 22.0386L1.85044 15.5912C1.72315 15.4689 1.63295 15.3136 1.59011 15.1428C1.54727 14.972 1.55352 14.7928 1.60814 14.6254C1.66277 14.458 1.76357 14.3092 1.89906 14.196C2.03456 14.0828 2.1993 14.0097 2.37452 13.9851L11.5817 12.6467C12.1882 12.5589 12.7643 12.3259 13.2602 11.9677C13.7561 11.6095 14.157 11.1368 14.4285 10.5903L18.5446 2.29572Z" stroke="#0097FD" stroke-width="2" stroke-linecap="round" stroke-linejoin="round"/>
</g>
<defs>
<clipPath id="clip0_55_445">
<rect width="39" height="37" fill="white"/>
</clipPath>
</defs>
</svg>
