<svg width="40" height="37" viewBox="0 0 40 37" fill="none" xmlns="http://www.w3.org/2000/svg">
<path d="M19.0446 2.29572C19.1227 2.13876 19.2434 2.00664 19.393 1.91427C19.5426 1.8219 19.7152 1.77295 19.8913 1.77295C20.0674 1.77295 20.24 1.8219 20.3896 1.91427C20.5392 2.00664 20.6599 2.13876 20.738 2.29572L24.8559 10.5903C25.1271 11.1362 25.5276 11.6086 26.0228 11.9667C26.518 12.3249 27.0933 12.5582 27.6991 12.6467L36.9081 13.9869C37.0826 14.012 37.2465 14.0852 37.3814 14.1982C37.5162 14.3111 37.6166 14.4594 37.6711 14.6261C37.7256 14.7928 37.7321 14.9714 37.6899 15.1417C37.6477 15.3119 37.5584 15.467 37.4322 15.5894L30.7724 22.0386C30.3331 22.4642 30.0045 22.9896 29.8148 23.5696C29.6251 24.1495 29.5799 24.7666 29.6832 25.3678L31.2554 34.4796C31.2862 34.653 31.2674 34.8316 31.2011 34.9949C31.1347 35.1582 31.0236 35.2997 30.8803 35.4032C30.737 35.5067 30.5673 35.568 30.3906 35.5803C30.214 35.5925 30.0374 35.5551 29.881 35.4723L21.649 31.1681C21.1065 30.8849 20.5031 30.7369 19.8904 30.7369C19.2778 30.7369 18.6743 30.8849 18.1319 31.1681L9.90157 35.4723C9.74529 35.5546 9.56893 35.5916 9.39255 35.5791C9.21616 35.5667 9.04684 35.5052 8.90383 35.4018C8.76083 35.2984 8.64988 35.1571 8.58361 34.9941C8.51734 34.831 8.4984 34.6528 8.52896 34.4796L10.0994 25.3695C10.2032 24.7681 10.1582 24.1506 9.96848 23.5703C9.77873 22.99 9.44987 22.4643 9.01026 22.0386L2.35044 15.5912C2.22315 15.4689 2.13295 15.3136 2.09011 15.1428C2.04727 14.972 2.05352 14.7928 2.10814 14.6254C2.16277 14.458 2.26357 14.3092 2.39906 14.196C2.53456 14.0828 2.6993 14.0097 2.87452 13.9851L12.0817 12.6467C12.6882 12.5589 13.2643 12.3259 13.7602 11.9677C14.2561 11.6095 14.657 11.1368 14.9285 10.5903L19.0446 2.29572Z" fill="#0097FD"/>
</svg>
